<?xml version="1.0" encoding="utf-8"?>
<!-- Generator: Adobe Illustrator 24.0.1, SVG Export Plug-In . SVG Version: 6.00 Build 0)  -->
<svg version="1.1" id="Layer_1" xmlns="http://www.w3.org/2000/svg" xmlns:xlink="http://www.w3.org/1999/xlink" x="0px" y="0px"
	 viewBox="0 0 552 160" style="enable-background:new 0 0 552 160;" xml:space="preserve">
<style type="text/css">
	.st0{fill:#F7F7F7;}
	.st1{fill:#0776BC;}
	.st2{fill:#070909;}
</style>
<text transform="matrix(0.9736 0 0 1 111.9189 493.8564)" style="font-family:'Montserrat-Regular'; font-size:25.8102px;">Technology Innovation &amp; Excellence</text>
<g>
	<g>
		<path class="st0" d="M139.6,61.1l19.9,41.7l19.8-41.7h17.2v68.2h-13.8v-46l-18.1,39.1h-10l-18.1-39.1v46h-13.9V61.1H139.6z"/>
		<path class="st0" d="M256.5,116.1h-31.6l-5.4,13.3h-15.9l29.6-68.2h15.9l29.1,68.2h-16.5L256.5,116.1z M251.6,103.7l-10.7-26.5
			L230,103.7H251.6z"/>
		<path class="st0" d="M298.3,61.1L312.6,82l14.3-20.9h18.2l-22.7,32.6l24.7,35.6h-18.4l-16.1-22.7l-15.8,22.7h-18l24.5-34.9
			l-22.8-33.3H298.3z"/>
	</g>
	<g>
		<path class="st0" d="M378.7,71.4c-6.7,0-11.1,2.5-11.1,7.1c0,14.9,36.8,6.9,36.7,31.5c0,12.2-10.7,19.7-25.7,19.7
			c-10.7,0-20.9-4.4-27.9-10.8l5-9.9c7,6.4,15.8,9.9,23.1,9.9c8,0,12.8-3,12.8-8.3c0-15.2-36.8-6.7-36.8-31c0-11.7,10-19,24.9-19
			c8.9,0,17.5,2.8,23.9,7l-4.8,10.1C391.3,73.3,383.9,71.4,378.7,71.4z"/>
		<path class="st0" d="M484.5,95.2c0,19.5-15.8,34.6-36.2,34.6c-20.4,0-36.2-15.1-36.2-34.6c0-19.6,15.8-34.4,36.2-34.4
			C468.7,60.8,484.5,75.7,484.5,95.2z M423.8,95.2c0,13.5,11.2,24.3,24.6,24.3c13.4,0,24.3-10.7,24.3-24.3s-10.9-24.1-24.3-24.1
			C435,71.1,423.8,81.7,423.8,95.2z"/>
		<path class="st0" d="M550.9,84.4c0,15.4-9.8,24.4-27,24.4h-15.7v20.6h-11.5V61.1h27.2C541.1,61.1,550.9,69.6,550.9,84.4z
			 M539.9,84.7c0-9-5.9-13.3-16.5-13.3h-15.2v27h15.2C534,98.4,539.9,94,539.9,84.7z"/>
	</g>
	<g>
		<path class="st0" d="M37.8,125.8c-0.5-1.4-1.3-2.8-2-4.2c-0.7-1.4-1.4-2.8-2.1-4.2c-0.8-1.3-1.6-2.6-2.4-3.9
			c-0.8-1.3-1.6-2.5-2.3-3.7c-0.7-1.2-1.6-2.2-2.3-3.2c-3-3.9-5-6.5-5-6.5s2.9,1.6,7.2,4c1.1,0.6,2.3,1.2,3.5,2
			c1.2,0.8,2.5,1.7,3.7,2.5c1.3,0.9,2.7,1.8,4.1,2.8c1.3,1.1,2.6,2.1,4,3.2c1.2,1,2.4,2,3.6,3V98.5c0-6.1-3.7-14.6-8.2-18.7
			L8.2,48.9C3.7,44.7,0,46.3,0,52.5v49.3c0,6.1,3.7,14.6,8.2,18.7l1.9,1.7c4.5,4.2,11.4,7.6,17.5,7.6h9.1c0.9,0,1.8-0.2,2.7-0.4
			C38.8,128.2,38.3,127,37.8,125.8z"/>
		<path class="st0" d="M102.3,32.5L62.1,69.8C57.7,74,54,82.4,54,88.5v29.1c0.6-0.8,1.3-1.5,1.9-2.3c1.7-1.9,3.5-3.8,5.3-5.7
			c1.8-1.9,3.6-3.9,5.6-5.7c1.9-1.8,3.9-3.7,5.7-5.5c1.8-1.9,3.8-3.5,5.8-5.1c1.9-1.6,3.8-3.1,5.5-4.6c0.9-0.7,1.7-1.4,2.6-2.1
			c0.8-0.6,1.7-1.2,2.5-1.8c6.5-4.4,10.9-7.4,10.9-7.4s-3.6,3.8-8.9,9.5c-0.6,0.7-1.4,1.4-2,2.2c-0.6,0.8-1.3,1.7-2,2.6
			c-1.4,1.8-2.8,3.6-4.3,5.5c-1.5,1.9-3,3.8-4.4,6c-1.4,2.1-2.8,4.2-4.2,6.4c-1.5,2.1-2.7,4.3-4,6.5c-1.2,2.2-2.5,4.3-3.7,6.4
			c-1.1,2.1-2.1,4.2-3.1,6.1c-0.2,0.3-0.3,0.6-0.5,0.9c0.8,0.2,1.6,0.3,2.4,0.3h13.5c6.1,0,14.8-3.4,19.3-7.6l4.4-4.1
			c4.5-4.2,8.2-12.6,8.2-18.7V36.1C110.4,29.9,106.8,28.3,102.3,32.5z"/>
	</g>
</g>
<g>
	<g>
		<g>
			<path class="st1" d="M529.8-1005.3l19.2,40.4l19.1-40.4h16.6v66h-13.4v-44.5L553.8-946h-9.7l-17.5-37.8v44.5h-13.5v-66H529.8z"/>
			<path class="st1" d="M642.9-952.1h-30.6l-5.2,12.8h-15.4l28.7-66h15.4l28.2,66h-15.9L642.9-952.1z M638.1-964.1l-10.4-25.7
				l-10.5,25.7H638.1z"/>
			<path class="st1" d="M683.4-1005.3l13.8,20.2l13.9-20.2h17.6l-22,31.6l23.9,34.4h-17.8l-15.6-22l-15.3,22h-17.4l23.7-33.8
				l-22.1-32.3C666-1005.3,683.4-1005.3,683.4-1005.3z"/>
		</g>
		<g>
			<path class="st2" d="M761.2-995.3c-6.5,0-10.8,2.4-10.8,6.9c0,14.4,35.6,6.7,35.6,30.5c0,11.8-10.4,19.1-24.9,19.1
				c-10.4,0-20.2-4.2-27-10.5l4.8-9.6c6.8,6.2,15.3,9.6,22.3,9.6c7.7,0,12.4-2.9,12.4-8c0-14.7-35.6-6.5-35.6-30
				c0-11.3,9.7-18.4,24-18.4c8.6,0,17,2.7,23.1,6.8l-4.6,9.8C773.3-993.5,766.2-995.3,761.2-995.3z"/>
			<path class="st2" d="M863.5-972.3c0,18.9-15.3,33.5-35,33.5s-35-14.6-35-33.5c0-19,15.3-33.3,35-33.3S863.5-991.2,863.5-972.3z
				 M804.8-972.3c0,13.1,10.8,23.5,23.8,23.5c12.9,0,23.5-10.4,23.5-23.5c0-13.1-10.6-23.3-23.5-23.3
				C815.6-995.6,804.8-985.4,804.8-972.3z"/>
			<path class="st2" d="M927.8-982.8c0,14.9-9.5,23.6-26.1,23.6h-15.2v19.9h-11.1v-66h26.3C918.3-1005.3,927.8-997.1,927.8-982.8z
				 M917.1-982.5c0-8.7-5.8-12.8-15.9-12.8h-14.7v26.1h14.7C911.4-969.2,917.1-973.5,917.1-982.5z"/>
		</g>
	</g>
	<g>
		<path class="st1" d="M437.6-941.9c-0.5-1.2-1.1-2.3-1.7-3.5c-0.6-1.2-1.2-2.3-1.8-3.5c-0.7-1.1-1.3-2.2-2-3.3
			c-0.7-1.1-1.3-2.1-1.9-3.1c-0.6-1-1.3-1.8-1.9-2.6c-2.5-3.3-4.1-5.4-4.1-5.4s2.4,1.3,6,3.3c0.9,0.5,2,1,2.9,1.7
			c1,0.7,2,1.4,3.1,2.1c1.1,0.8,2.2,1.5,3.4,2.3c1.1,0.9,2.2,1.8,3.3,2.7c1,0.8,2,1.6,3,2.5v-16.1c0-5.1-3.1-12.2-6.8-15.7
			l-26.3-25.8c-3.8-3.5-6.8-2.1-6.8,3v41.2c0,5.1,3.1,12.2,6.8,15.7l1.5,1.4c3.8,3.5,9.5,6.3,14.7,6.3h7.6c0.8,0,1.5-0.1,2.3-0.3
			C438.4-939.9,438-940.9,437.6-941.9z"/>
		<path class="st2" d="M491.5-1019.9l-33.5,31.1c-3.8,3.5-6.8,10.5-6.8,15.7v24.3c0.5-0.6,1.1-1.3,1.6-2c1.4-1.6,2.9-3.2,4.4-4.8
			c1.5-1.6,3-3.3,4.6-4.8c1.6-1.5,3.2-3.1,4.8-4.6c1.5-1.6,3.2-2.9,4.8-4.2c1.6-1.3,3.2-2.6,4.6-3.8c0.7-0.6,1.4-1.2,2.1-1.8
			c0.7-0.5,1.4-1,2.1-1.5c5.4-3.7,9.1-6.2,9.1-6.2s-3,3.2-7.4,8c-0.5,0.6-1.1,1.2-1.7,1.9c-0.5,0.7-1.1,1.4-1.7,2.1
			c-1.1,1.5-2.3,3-3.6,4.6c-1.2,1.6-2.5,3.2-3.6,5c-1.2,1.8-2.3,3.5-3.5,5.3c-1.2,1.7-2.3,3.6-3.3,5.4c-1,1.8-2.1,3.6-3.1,5.3
			c-0.9,1.8-1.8,3.5-2.6,5.1c-0.1,0.3-0.3,0.5-0.4,0.8c0.6,0.1,1.3,0.2,2,0.2h11.2c5.1,0,12.4-2.9,16.1-6.3l3.7-3.4
			c3.8-3.5,6.8-10.5,6.8-15.7v-52.9C498.3-1022,495.2-1023.3,491.5-1019.9z"/>
	</g>
</g>
</svg>
