<?xml version="1.0" encoding="utf-8"?>
<!-- Generator: Adobe Illustrator 24.0.1, SVG Export Plug-In . SVG Version: 6.00 Build 0)  -->
<svg version="1.1" id="Layer_1" xmlns="http://www.w3.org/2000/svg" xmlns:xlink="http://www.w3.org/1999/xlink" x="0px" y="0px"
	 viewBox="0 0 144 114" style="enable-background:new 0 0 144 114;" xml:space="preserve">
<style type="text/css">
	.st0{fill:#F7F7F7;}
	.st1{fill:#0776BC;}
	.st2{fill:#070909;}
</style>
<text transform="matrix(0.9736 0 0 1 -77.0811 465.8564)" style="font-family:'Montserrat-Regular'; font-size:25.8102px;">Technology Innovation &amp; Excellence</text>
<g>
	<g>
		<path class="st0" d="M638.3-385.9l25.8,54.1l25.6-54.1h22.2v88.4H694v-59.6l-23.5,50.7h-13L634-357.1v59.6h-18.1v-88.4H638.3z"/>
		<path class="st0" d="M789.9-314.6h-40.9l-6.9,17.2h-20.6l38.4-88.4h20.6l37.8,88.4h-21.4L789.9-314.6z M783.4-330.7l-13.9-34.4
			l-14,34.4H783.4z"/>
		<path class="st0" d="M844.1-385.9l18.4,27l18.6-27h23.6l-29.4,42.3l32,46.1h-23.9l-20.8-29.4L842-297.5h-23.4l31.7-45.2
			l-29.6-43.2H844.1z"/>
	</g>
	<g>
		<path class="st0" d="M948.3-372.5c-8.7,0-14.4,3.3-14.4,9.2c0,19.3,47.8,9,47.6,40.8c0,15.8-13.9,25.5-33.4,25.5
			c-13.9,0-27-5.7-36.1-14l6.4-12.9c9.1,8.3,20.5,12.9,29.9,12.9c10.4,0,16.6-3.9,16.6-10.7c0-19.7-47.8-8.7-47.8-40.2
			c0-15.2,13-24.6,32.2-24.6c11.5,0,22.7,3.7,31,9.1l-6.2,13.1C964.6-370.1,955-372.5,948.3-372.5z"/>
		<path class="st0" d="M1085.4-341.7c0,25.3-20.5,44.9-46.9,44.9c-26.4,0-46.9-19.6-46.9-44.9c0-25.4,20.5-44.6,46.9-44.6
			C1064.9-386.3,1085.4-367,1085.4-341.7z M1006.8-341.7c0,17.6,14.5,31.5,31.8,31.5s31.5-13.9,31.5-31.5s-14.2-31.2-31.5-31.2
			C1021.2-372.9,1006.8-359.2,1006.8-341.7z"/>
		<path class="st0" d="M1171.5-355.7c0,20-12.8,31.6-35,31.6h-20.3v26.7h-14.9v-88.4h35.3C1158.8-385.9,1171.5-374.9,1171.5-355.7z
			 M1157.2-355.3c0-11.6-7.7-17.2-21.4-17.2h-19.7v35h19.7C1149.5-337.5,1157.2-343.3,1157.2-355.3z"/>
	</g>
	<g>
		<path class="st0" d="M506.3-302.1c-0.7-1.9-1.7-3.6-2.6-5.4c-0.9-1.8-1.9-3.6-2.8-5.4c-1.1-1.7-2.1-3.4-3.1-5c-1-1.7-2-3.3-3-4.8
			c-0.9-1.6-2-2.8-3-4.1c-3.8-5-6.4-8.4-6.4-8.4s3.7,2.1,9.4,5.2c1.4,0.8,3,1.6,4.5,2.7c1.5,1.1,3.2,2.2,4.9,3.3
			c1.7,1.2,3.5,2.4,5.3,3.6c1.7,1.4,3.4,2.8,5.1,4.2c1.5,1.3,3.2,2.5,4.6,3.9v-25c0-8-4.8-18.9-10.6-24.3l-40.8-40
			c-5.8-5.4-10.6-3.3-10.6,4.6v63.9c0,8,4.8,18.9,10.6,24.3l2.4,2.2c5.8,5.4,14.8,9.8,22.7,9.8h11.8c1.2,0,2.4-0.2,3.5-0.5
			C507.7-298.9,507-300.5,506.3-302.1z"/>
		<path class="st0" d="M589.9-423l-52,48.3c-5.8,5.4-10.6,16.3-10.6,24.3v37.7c0.8-1,1.7-2,2.5-3c2.2-2.4,4.5-4.9,6.8-7.4
			c2.3-2.5,4.6-5.1,7.2-7.4c2.5-2.4,5-4.8,7.5-7.1c2.4-2.4,5-4.5,7.5-6.6c2.5-2,4.9-4,7.2-5.9c1.1-0.9,2.2-1.8,3.3-2.7
			c1.1-0.8,2.2-1.6,3.3-2.3c8.4-5.7,14.1-9.6,14.1-9.6s-4.6,4.9-11.5,12.4c-0.8,0.9-1.8,1.9-2.6,2.9c-0.8,1.1-1.7,2.2-2.6,3.3
			c-1.8,2.3-3.6,4.7-5.5,7.2c-1.9,2.5-3.9,5-5.7,7.8c-1.8,2.7-3.6,5.5-5.5,8.3c-1.9,2.7-3.5,5.6-5.1,8.4c-1.6,2.8-3.2,5.6-4.7,8.3
			c-1.4,2.8-2.8,5.4-4,7.9c-0.2,0.4-0.4,0.8-0.6,1.2c1,0.2,2,0.3,3.1,0.3h17.4c7.9,0,19.2-4.4,25-9.8l5.7-5.3
			c5.8-5.4,10.6-16.3,10.6-24.3v-82.1C600.5-426.3,595.7-428.4,589.9-423z"/>
	</g>
</g>
<g>
	<path class="st1" d="M62.7,90.2c-0.5-1.2-1.1-2.3-1.7-3.5c-0.6-1.2-1.2-2.3-1.8-3.5c-0.7-1.1-1.3-2.2-2-3.3
		c-0.7-1.1-1.3-2.1-1.9-3.1c-0.6-1-1.3-1.8-1.9-2.6c-2.5-3.3-4.1-5.4-4.1-5.4s2.4,1.3,6,3.3c0.9,0.5,2,1,2.9,1.7
		c1,0.7,2,1.4,3.1,2.1c1.1,0.8,2.2,1.5,3.4,2.3c1.1,0.9,2.2,1.8,3.3,2.7c1,0.8,2,1.6,3,2.5V67.5c0-5.1-3.1-12.2-6.8-15.7L37.9,26
		c-3.8-3.5-6.8-2.1-6.8,3v41.2c0,5.1,3.1,12.2,6.8,15.7l1.5,1.4c3.8,3.5,9.5,6.3,14.7,6.3h7.6c0.8,0,1.5-0.1,2.3-0.3
		C63.6,92.3,63.1,91.3,62.7,90.2z"/>
	<path class="st2" d="M116.6,12.3L83,43.5c-3.8,3.5-6.8,10.5-6.8,15.7v24.3c0.5-0.6,1.1-1.3,1.6-2c1.4-1.6,2.9-3.2,4.4-4.8
		c1.5-1.6,3-3.3,4.6-4.8c1.6-1.5,3.2-3.1,4.8-4.6c1.5-1.6,3.2-2.9,4.8-4.2c1.6-1.3,3.2-2.6,4.6-3.8c0.7-0.6,1.4-1.2,2.1-1.8
		c0.7-0.5,1.4-1,2.1-1.5c5.4-3.7,9.1-6.2,9.1-6.2s-3,3.2-7.4,8c-0.5,0.6-1.1,1.2-1.7,1.9c-0.5,0.7-1.1,1.4-1.7,2.1
		c-1.1,1.5-2.3,3-3.6,4.6c-1.2,1.6-2.5,3.2-3.6,5c-1.2,1.8-2.3,3.5-3.5,5.3c-1.2,1.7-2.3,3.6-3.3,5.4c-1,1.8-2.1,3.6-3.1,5.3
		c-0.9,1.8-1.8,3.5-2.6,5.1c-0.1,0.3-0.3,0.5-0.4,0.8c0.6,0.1,1.3,0.2,2,0.2h11.2c5.1,0,12.4-2.9,16.1-6.3l3.7-3.4
		c3.8-3.5,6.8-10.5,6.8-15.7V15.3C123.4,10.2,120.3,8.8,116.6,12.3z"/>
</g>
</svg>
