<svg xmlns="http://www.w3.org/2000/svg" width="106.802" height="96.432" viewBox="0 0 106.802 96.432">
  <g id="icon-logo" transform="translate(-9.4 -6.668)">
    <path id="Path_20" data-name="Path 20" d="M46,99.2a29.856,29.856,0,0,0-2-4c-.7-1.4-1.4-2.7-2.1-4.1-.8-1.3-1.6-2.5-2.3-3.8-.8-1.2-1.5-2.4-2.2-3.6s-1.5-2.1-2.2-3.1c-2.9-3.8-4.8-6.3-4.8-6.3s2.8,1.5,7,3.8c1,.6,2.3,1.2,3.4,2,1.2.8,2.4,1.6,3.6,2.5l3.9,2.7c1.3,1,2.5,2.1,3.8,3.1,1.1,1,2.4,1.9,3.4,2.9V72.8c0-5.9-3.6-14.1-7.9-18.1L17.3,24.8c-4.3-4-7.9-2.5-7.9,3.4V75.9C9.4,81.8,13,90,17.3,94l1.8,1.7c4.4,4,11,7.3,17,7.3h8.8a7.457,7.457,0,0,0,2.6-.4C47,101.6,46.5,100.4,46,99.2Z" fill="#5a8dee"/>
    <path id="Path_21" data-name="Path 21" d="M108.4,8.9,69.6,45c-4.3,4-7.9,12.2-7.9,18.1V91.2c.6-.7,1.2-1.5,1.9-2.3,1.7-1.8,3.4-3.7,5.1-5.5,1.7-1.9,3.5-3.8,5.4-5.6s3.7-3.6,5.6-5.3a63.334,63.334,0,0,1,5.6-4.9c1.9-1.5,3.7-3,5.4-4.4.8-.7,1.7-1.4,2.5-2s1.7-1.2,2.5-1.7c6.3-4.3,10.5-7.1,10.5-7.1s-3.4,3.7-8.6,9.2c-.6.7-1.3,1.4-2,2.2-.6.8-1.3,1.6-1.9,2.5-1.3,1.7-2.7,3.5-4.1,5.3a66.546,66.546,0,0,0-4.2,5.8c-1.3,2-2.7,4.1-4.1,6.2-1.4,2-2.6,4.2-3.8,6.3A69.161,69.161,0,0,0,73.6,96c-1.1,2.1-2.1,4-3,5.9-.2.3-.3.6-.5.9a8.524,8.524,0,0,0,2.3.3h13c5.9,0,14.3-3.3,18.7-7.3l4.2-3.9c4.3-4,7.9-12.2,7.9-18.1V12.4C116.3,6.4,112.7,4.9,108.4,8.9Z" fill="#516377"/>
  </g>
</svg>
