<svg xmlns="http://www.w3.org/2000/svg" width="521.8" height="83.234" viewBox="0 0 521.8 83.234">
  <g id="logo_with_name" transform="translate(-15.1 -38.366)">
    <g id="Group_52" data-name="Group 52">
      <g id="Group_50" data-name="Group 50">
        <path id="Path_12" data-name="Path 12" d="M138.9,54.9l19.2,40.4,19.1-40.4h16.6v66H180.4V76.4l-17.5,37.8h-9.7L135.7,76.4v44.5H122.2v-66h16.7Z" fill="#5a8dee"/>
        <path id="Path_13" data-name="Path 13" d="M252,108H221.4l-5.2,12.8H200.8l28.7-66H245l28.2,66H257.3Zm-4.8-11.9L236.8,70.4,226.3,96.1h20.9Z" fill="#5a8dee"/>
        <path id="Path_14" data-name="Path 14" d="M292.5,54.9,306.3,75l13.9-20.2h17.6l-22,31.6,23.9,34.4H321.9l-15.6-22-15.3,22H273.6L297.3,87,275.2,54.7C275.1,54.9,292.5,54.9,292.5,54.9Z" fill="#5a8dee"/>
      </g>
      <g id="Group_51" data-name="Group 51">
        <path id="Path_15" data-name="Path 15" d="M370.3,64.9c-6.5,0-10.8,2.4-10.8,6.9,0,14.4,35.6,6.7,35.6,30.5,0,11.8-10.4,19.1-24.9,19.1a40.3,40.3,0,0,1-27-10.5l4.8-9.6c6.8,6.2,15.3,9.6,22.3,9.6,7.7,0,12.4-2.9,12.4-8,0-14.7-35.6-6.5-35.6-30,0-11.3,9.7-18.4,24-18.4a42.474,42.474,0,0,1,23.1,6.8l-4.6,9.8C382.4,66.6,375.3,64.9,370.3,64.9Z" fill="#516377"/>
        <path id="Path_16" data-name="Path 16" d="M472.6,87.9c0,18.9-15.3,33.5-35,33.5s-35-14.6-35-33.5c0-19,15.3-33.3,35-33.3S472.6,69,472.6,87.9Zm-58.7,0a23.65,23.65,0,0,0,47.3,0,23.653,23.653,0,0,0-47.3,0Z" fill="#516377"/>
        <path id="Path_17" data-name="Path 17" d="M536.9,77.4c0,14.9-9.5,23.6-26.1,23.6H495.6v19.9H484.5v-66h26.3C527.4,54.9,536.9,63.1,536.9,77.4Zm-10.7.3c0-8.7-5.8-12.8-15.9-12.8H495.6V91h14.7C520.5,91,526.2,86.6,526.2,77.7Z" fill="#516377"/>
      </g>
    </g>
    <g id="Group_53" data-name="Group 53">
      <path id="Path_18" data-name="Path 18" d="M46.7,118.2c-.5-1.2-1.1-2.3-1.7-3.5s-1.2-2.3-1.8-3.5c-.7-1.1-1.3-2.2-2-3.3s-1.3-2.1-1.9-3.1a29.272,29.272,0,0,0-1.9-2.6c-2.5-3.3-4.1-5.4-4.1-5.4s2.4,1.3,6,3.3a21.852,21.852,0,0,1,2.9,1.7c1,.7,2,1.4,3.1,2.1,1.1.8,2.2,1.5,3.4,2.3l3.3,2.7c1,.8,2,1.6,3,2.5V95.5c0-5.1-3.1-12.2-6.8-15.7L21.9,54c-3.8-3.5-6.8-2.1-6.8,3V98.2c0,5.1,3.1,12.2,6.8,15.7l1.5,1.4c3.8,3.5,9.5,6.3,14.7,6.3h7.6a9.079,9.079,0,0,0,2.3-.3C47.6,120.3,47.1,119.3,46.7,118.2Z" fill="#5a8dee"/>
      <path id="Path_19" data-name="Path 19" d="M100.6,40.3,67,71.5C63.2,75,60.2,82,60.2,87.2v24.3c.5-.6,1.1-1.3,1.6-2,1.4-1.6,2.9-3.2,4.4-4.8s3-3.3,4.6-4.8,3.2-3.1,4.8-4.6a46.542,46.542,0,0,1,4.8-4.2c1.6-1.3,3.2-2.6,4.6-3.8l2.1-1.8L89.2,84c5.4-3.7,9.1-6.2,9.1-6.2s-3,3.2-7.4,8c-.5.6-1.1,1.2-1.7,1.9-.5.7-1.1,1.4-1.7,2.1-1.1,1.5-2.3,3-3.6,4.6-1.2,1.6-2.5,3.2-3.6,5-1.2,1.8-2.3,3.5-3.5,5.3a59.96,59.96,0,0,0-3.3,5.4c-1,1.8-2.1,3.6-3.1,5.3-.9,1.8-1.8,3.5-2.6,5.1-.1.3-.3.5-.4.8a12.311,12.311,0,0,0,2,.2H80.6c5.1,0,12.4-2.9,16.1-6.3l3.7-3.4c3.8-3.5,6.8-10.5,6.8-15.7V43.3C107.4,38.2,104.3,36.8,100.6,40.3Z" fill="#516377"/>
    </g>
  </g>
</svg>
