<svg xmlns="http://www.w3.org/2000/svg" width="100" height="100" viewBox="0 0 100 100">
  <g id="danger" transform="translate(-835 -1747)">
    <rect id="Rectangle_3" data-name="Rectangle 3" width="100" height="100" transform="translate(835 1747)" fill="#ffdede"/>
    <g id="x-lg" transform="translate(859.001 1771.001)">
      <path id="Path_3" data-name="Path 3" d="M50.4,2.6a2.041,2.041,0,0,1,0,2.891L5.489,50.4A2.044,2.044,0,0,1,2.6,47.509L47.508,2.6a2.041,2.041,0,0,1,2.891,0Z" transform="translate(0.001 0)" fill="#ff5b5c" fill-rule="evenodd"/>
      <path id="Path_4" data-name="Path 4" d="M2.6,2.6a2.041,2.041,0,0,0,0,2.891L47.509,50.4A2.044,2.044,0,0,0,50.4,47.509L5.489,2.6A2.041,2.041,0,0,0,2.6,2.6Z" transform="translate(0 0)" fill="#ff5b5c" fill-rule="evenodd"/>
    </g>
  </g>
</svg>
